<mxfile host="Electron" modified="2024-06-17T06:47:33.268Z" agent="Mozilla/5.0 (X11; Linux x86_64) AppleWebKit/537.36 (KHTML, like Gecko) draw.io/22.0.2 Chrome/114.0.5735.289 Electron/25.8.4 Safari/537.36" etag="rAgo1D7QUJ8fQAzrNR6U" version="22.0.2" type="device">
  <diagram name="Pàgina-1" id="EeZQTQSFdSmivc1_4t9E">
    <mxGraphModel dx="1114" dy="883" grid="1" gridSize="10" guides="1" tooltips="1" connect="1" arrows="1" fold="1" page="1" pageScale="1" pageWidth="1169" pageHeight="1654" math="0" shadow="0">
      <root>
        <mxCell id="0" />
        <mxCell id="1" parent="0" />
        <mxCell id="Squ9iNtpEF2mn4FgxtWx-6" value="" style="rounded=0;whiteSpace=wrap;html=1;" vertex="1" parent="1">
          <mxGeometry x="80" y="120" width="680" height="480" as="geometry" />
        </mxCell>
        <mxCell id="Squ9iNtpEF2mn4FgxtWx-1" value="&lt;h1&gt;Visualización / edición de una localización&lt;/h1&gt;&lt;p&gt;&lt;b&gt;&lt;font style=&quot;font-size: 14px;&quot;&gt;Componente&lt;/font&gt;&lt;/b&gt;&lt;/p&gt;" style="text;html=1;strokeColor=none;fillColor=none;spacing=5;spacingTop=-20;whiteSpace=wrap;overflow=hidden;rounded=0;" vertex="1" parent="1">
          <mxGeometry x="80" y="40" width="680" height="80" as="geometry" />
        </mxCell>
        <mxCell id="Squ9iNtpEF2mn4FgxtWx-3" value="" style="group" vertex="1" connectable="0" parent="1">
          <mxGeometry x="110" y="140" width="620" height="40" as="geometry" />
        </mxCell>
        <mxCell id="Squ9iNtpEF2mn4FgxtWx-10" value="" style="group" vertex="1" connectable="0" parent="Squ9iNtpEF2mn4FgxtWx-3">
          <mxGeometry width="620" height="40" as="geometry" />
        </mxCell>
        <mxCell id="Squ9iNtpEF2mn4FgxtWx-4" value="" style="rounded=0;whiteSpace=wrap;html=1;" vertex="1" parent="Squ9iNtpEF2mn4FgxtWx-10">
          <mxGeometry width="620" height="40" as="geometry" />
        </mxCell>
        <mxCell id="Squ9iNtpEF2mn4FgxtWx-5" value="Nombre" style="text;html=1;strokeColor=none;fillColor=none;align=left;verticalAlign=middle;whiteSpace=wrap;rounded=0;" vertex="1" parent="Squ9iNtpEF2mn4FgxtWx-10">
          <mxGeometry x="18.235294117647058" y="5" width="273.52941176470586" height="30" as="geometry" />
        </mxCell>
        <mxCell id="Squ9iNtpEF2mn4FgxtWx-12" value="" style="group" vertex="1" connectable="0" parent="1">
          <mxGeometry x="110" y="190" width="620" height="40" as="geometry" />
        </mxCell>
        <mxCell id="Squ9iNtpEF2mn4FgxtWx-13" value="" style="rounded=0;whiteSpace=wrap;html=1;" vertex="1" parent="Squ9iNtpEF2mn4FgxtWx-12">
          <mxGeometry width="620" height="40" as="geometry" />
        </mxCell>
        <mxCell id="Squ9iNtpEF2mn4FgxtWx-14" value="Dirección" style="text;html=1;strokeColor=none;fillColor=none;align=left;verticalAlign=middle;whiteSpace=wrap;rounded=0;" vertex="1" parent="Squ9iNtpEF2mn4FgxtWx-12">
          <mxGeometry x="18.235294117647058" y="5" width="273.52941176470586" height="30" as="geometry" />
        </mxCell>
        <mxCell id="Squ9iNtpEF2mn4FgxtWx-15" value="" style="verticalLabelPosition=bottom;verticalAlign=top;html=1;shadow=0;dashed=0;strokeWidth=1;shape=mxgraph.ios.iBgMap;strokeColor=#18211b;strokeColor2=#008cff;fillColor2=#96D1FF;" vertex="1" parent="1">
          <mxGeometry x="110" y="300" width="175" height="280" as="geometry" />
        </mxCell>
        <mxCell id="Squ9iNtpEF2mn4FgxtWx-21" value="" style="group" vertex="1" connectable="0" parent="1">
          <mxGeometry x="110" y="250" width="620" height="40" as="geometry" />
        </mxCell>
        <mxCell id="Squ9iNtpEF2mn4FgxtWx-22" value="" style="group" vertex="1" connectable="0" parent="Squ9iNtpEF2mn4FgxtWx-21">
          <mxGeometry width="620" height="40" as="geometry" />
        </mxCell>
        <mxCell id="Squ9iNtpEF2mn4FgxtWx-17" value="" style="rounded=0;whiteSpace=wrap;html=1;" vertex="1" parent="Squ9iNtpEF2mn4FgxtWx-22">
          <mxGeometry y="-10" width="620" height="40" as="geometry" />
        </mxCell>
        <mxCell id="Squ9iNtpEF2mn4FgxtWx-18" value="Población" style="text;html=1;strokeColor=none;fillColor=none;align=left;verticalAlign=middle;whiteSpace=wrap;rounded=0;" vertex="1" parent="Squ9iNtpEF2mn4FgxtWx-22">
          <mxGeometry x="18.235294117647072" y="-5" width="273.52941176470586" height="30" as="geometry" />
        </mxCell>
        <mxCell id="Squ9iNtpEF2mn4FgxtWx-23" value="&lt;b&gt;Lat&lt;/b&gt;" style="text;html=1;strokeColor=none;fillColor=none;align=left;verticalAlign=middle;whiteSpace=wrap;rounded=0;" vertex="1" parent="1">
          <mxGeometry x="310" y="320" width="60" height="30" as="geometry" />
        </mxCell>
        <mxCell id="Squ9iNtpEF2mn4FgxtWx-24" value="41° 23&#39; 7.19&quot; N" style="text;html=1;strokeColor=none;fillColor=none;align=left;verticalAlign=middle;whiteSpace=wrap;rounded=0;" vertex="1" parent="1">
          <mxGeometry x="360" y="320" width="100" height="30" as="geometry" />
        </mxCell>
        <mxCell id="Squ9iNtpEF2mn4FgxtWx-25" value="&lt;b&gt;Long&lt;/b&gt;" style="text;html=1;strokeColor=none;fillColor=none;align=left;verticalAlign=middle;whiteSpace=wrap;rounded=0;" vertex="1" parent="1">
          <mxGeometry x="310" y="350" width="60" height="30" as="geometry" />
        </mxCell>
        <mxCell id="Squ9iNtpEF2mn4FgxtWx-26" value="2° 10&#39; 7.20&quot; E" style="text;html=1;strokeColor=none;fillColor=none;align=left;verticalAlign=middle;whiteSpace=wrap;rounded=0;" vertex="1" parent="1">
          <mxGeometry x="360" y="350" width="100" height="30" as="geometry" />
        </mxCell>
        <mxCell id="Squ9iNtpEF2mn4FgxtWx-32" value="Ver cajas" style="strokeWidth=1;shadow=0;dashed=0;align=center;html=1;shape=mxgraph.mockup.buttons.button;strokeColor=#666666;fontColor=#ffffff;mainText=;buttonStyle=round;fontSize=17;fontStyle=1;fillColor=#008cff;whiteSpace=wrap;" vertex="1" parent="1">
          <mxGeometry x="580" y="450" width="150" height="50" as="geometry" />
        </mxCell>
        <mxCell id="Squ9iNtpEF2mn4FgxtWx-33" value="Guardar" style="strokeWidth=1;shadow=0;dashed=0;align=center;html=1;shape=mxgraph.mockup.buttons.button;strokeColor=#666666;fontColor=#ffffff;mainText=;buttonStyle=round;fontSize=17;fontStyle=1;fillColor=#008cff;whiteSpace=wrap;" vertex="1" parent="1">
          <mxGeometry x="580" y="510" width="150" height="50" as="geometry" />
        </mxCell>
        <mxCell id="Squ9iNtpEF2mn4FgxtWx-35" value="Permite ver las cajas de una localización (en realidad es un filtro) en la opció de ver cajas" style="shape=note;whiteSpace=wrap;html=1;backgroundOutline=1;darkOpacity=0.05;fillColor=#fff2cc;strokeColor=#d6b656;" vertex="1" parent="1">
          <mxGeometry x="870" y="300" width="210" height="110" as="geometry" />
        </mxCell>
        <mxCell id="Squ9iNtpEF2mn4FgxtWx-36" value="" style="endArrow=none;dashed=1;html=1;dashPattern=1 3;strokeWidth=2;rounded=0;entryX=0;entryY=0.5;entryDx=0;entryDy=0;entryPerimeter=0;exitX=0.987;exitY=0.56;exitDx=0;exitDy=0;exitPerimeter=0;" edge="1" parent="1" source="Squ9iNtpEF2mn4FgxtWx-32" target="Squ9iNtpEF2mn4FgxtWx-35">
          <mxGeometry width="50" height="50" relative="1" as="geometry">
            <mxPoint x="600" y="480" as="sourcePoint" />
            <mxPoint x="650" y="430" as="targetPoint" />
          </mxGeometry>
        </mxCell>
        <mxCell id="Squ9iNtpEF2mn4FgxtWx-38" value="" style="rounded=0;whiteSpace=wrap;html=1;" vertex="1" parent="1">
          <mxGeometry x="75" y="710" width="685" height="930" as="geometry" />
        </mxCell>
        <mxCell id="Squ9iNtpEF2mn4FgxtWx-40" value="&lt;h1&gt;Visualización / edición de un organizador&lt;/h1&gt;&lt;p&gt;&lt;b&gt;&lt;font style=&quot;font-size: 14px;&quot;&gt;Componente&lt;/font&gt;&lt;/b&gt;&lt;/p&gt;" style="text;html=1;strokeColor=none;fillColor=none;spacing=5;spacingTop=-20;whiteSpace=wrap;overflow=hidden;rounded=0;" vertex="1" parent="1">
          <mxGeometry x="75" y="630" width="685" height="80" as="geometry" />
        </mxCell>
        <mxCell id="Squ9iNtpEF2mn4FgxtWx-45" value="" style="endArrow=classic;html=1;rounded=0;exitX=1.008;exitY=0.588;exitDx=0;exitDy=0;exitPerimeter=0;entryX=0;entryY=0.75;entryDx=0;entryDy=0;" edge="1" parent="1" source="Squ9iNtpEF2mn4FgxtWx-42" target="Squ9iNtpEF2mn4FgxtWx-53">
          <mxGeometry width="50" height="50" relative="1" as="geometry">
            <mxPoint x="600" y="600" as="sourcePoint" />
            <mxPoint x="980" y="630" as="targetPoint" />
          </mxGeometry>
        </mxCell>
        <mxCell id="Squ9iNtpEF2mn4FgxtWx-49" value="" style="group" vertex="1" connectable="0" parent="1">
          <mxGeometry x="90" y="720" width="650" height="80" as="geometry" />
        </mxCell>
        <mxCell id="Squ9iNtpEF2mn4FgxtWx-42" value="" style="rounded=0;whiteSpace=wrap;html=1;" vertex="1" parent="Squ9iNtpEF2mn4FgxtWx-49">
          <mxGeometry width="650" height="80" as="geometry" />
        </mxCell>
        <mxCell id="Squ9iNtpEF2mn4FgxtWx-44" value="usuarios autorizados" style="text;html=1;strokeColor=none;fillColor=none;align=center;verticalAlign=middle;whiteSpace=wrap;rounded=0;" vertex="1" parent="Squ9iNtpEF2mn4FgxtWx-49">
          <mxGeometry x="10" y="10" width="130" height="30" as="geometry" />
        </mxCell>
        <mxCell id="Squ9iNtpEF2mn4FgxtWx-48" value="los usuarios se pueden mostrar como una lista separada por comas" style="text;html=1;strokeColor=none;fillColor=none;align=center;verticalAlign=middle;whiteSpace=wrap;rounded=0;" vertex="1" parent="Squ9iNtpEF2mn4FgxtWx-49">
          <mxGeometry x="150" y="10" width="370" height="30" as="geometry" />
        </mxCell>
        <mxCell id="Squ9iNtpEF2mn4FgxtWx-53" value="Agregar / quitar usuario" style="text;html=1;strokeColor=none;fillColor=none;align=center;verticalAlign=middle;whiteSpace=wrap;rounded=0;fontSize=20;fontStyle=1" vertex="1" parent="1">
          <mxGeometry x="850" y="580" width="160" height="80" as="geometry" />
        </mxCell>
        <mxCell id="Squ9iNtpEF2mn4FgxtWx-54" value="" style="strokeWidth=1;shadow=0;dashed=0;align=center;html=1;shape=mxgraph.mockup.forms.rrect;rSize=0;strokeColor=#999999;fillColor=#ffffff;" vertex="1" parent="1">
          <mxGeometry x="90" y="827" width="320" height="223" as="geometry" />
        </mxCell>
        <mxCell id="Squ9iNtpEF2mn4FgxtWx-55" value="Tipos" style="strokeWidth=1;shadow=0;dashed=0;align=center;html=1;shape=mxgraph.mockup.forms.rrect;rSize=0;strokeColor=#999999;fontColor=#008cff;fontSize=17;fillColor=#ffffff;resizeWidth=1;whiteSpace=wrap;" vertex="1" parent="Squ9iNtpEF2mn4FgxtWx-54">
          <mxGeometry width="320" height="30" relative="1" as="geometry">
            <mxPoint y="-1" as="offset" />
          </mxGeometry>
        </mxCell>
        <mxCell id="Squ9iNtpEF2mn4FgxtWx-56" value="Item 1" style="strokeWidth=1;shadow=0;dashed=0;align=center;html=1;shape=mxgraph.mockup.forms.anchor;fontSize=17;fontColor=#666666;align=left;spacingLeft=5;resizeWidth=1;whiteSpace=wrap;" vertex="1" parent="Squ9iNtpEF2mn4FgxtWx-54">
          <mxGeometry width="320" height="20" relative="1" as="geometry">
            <mxPoint y="30" as="offset" />
          </mxGeometry>
        </mxCell>
        <mxCell id="Squ9iNtpEF2mn4FgxtWx-57" value="Item 2" style="strokeWidth=1;shadow=0;dashed=0;align=center;html=1;shape=mxgraph.mockup.forms.anchor;fontSize=17;fontColor=#666666;align=left;spacingLeft=5;resizeWidth=1;whiteSpace=wrap;" vertex="1" parent="Squ9iNtpEF2mn4FgxtWx-54">
          <mxGeometry width="320" height="20" relative="1" as="geometry">
            <mxPoint y="50" as="offset" />
          </mxGeometry>
        </mxCell>
        <mxCell id="Squ9iNtpEF2mn4FgxtWx-58" value="Item 3" style="strokeWidth=1;shadow=0;dashed=0;align=center;html=1;shape=mxgraph.mockup.forms.rrect;rSize=0;fontSize=17;fontColor=#666666;align=left;spacingLeft=5;fillColor=#ddeeff;strokeColor=none;resizeWidth=1;whiteSpace=wrap;" vertex="1" parent="Squ9iNtpEF2mn4FgxtWx-54">
          <mxGeometry width="320" height="20" relative="1" as="geometry">
            <mxPoint y="70" as="offset" />
          </mxGeometry>
        </mxCell>
        <mxCell id="Squ9iNtpEF2mn4FgxtWx-59" value="Item 4" style="strokeWidth=1;shadow=0;dashed=0;align=center;html=1;shape=mxgraph.mockup.forms.anchor;fontSize=17;fontColor=#666666;align=left;spacingLeft=5;resizeWidth=1;whiteSpace=wrap;" vertex="1" parent="Squ9iNtpEF2mn4FgxtWx-54">
          <mxGeometry width="320" height="20" relative="1" as="geometry">
            <mxPoint y="90" as="offset" />
          </mxGeometry>
        </mxCell>
        <mxCell id="Squ9iNtpEF2mn4FgxtWx-60" value="" style="strokeWidth=1;shadow=0;dashed=0;align=center;html=1;shape=mxgraph.mockup.forms.rrect;rSize=0;strokeColor=#999999;fillColor=#ffffff;" vertex="1" parent="1">
          <mxGeometry x="420" y="827" width="320" height="223" as="geometry" />
        </mxCell>
        <mxCell id="Squ9iNtpEF2mn4FgxtWx-61" value="Etiquetas" style="strokeWidth=1;shadow=0;dashed=0;align=center;html=1;shape=mxgraph.mockup.forms.rrect;rSize=0;strokeColor=#999999;fontColor=#008cff;fontSize=17;fillColor=#ffffff;resizeWidth=1;whiteSpace=wrap;" vertex="1" parent="Squ9iNtpEF2mn4FgxtWx-60">
          <mxGeometry width="320" height="30" relative="1" as="geometry">
            <mxPoint y="-1" as="offset" />
          </mxGeometry>
        </mxCell>
        <mxCell id="Squ9iNtpEF2mn4FgxtWx-62" value="Item 1" style="strokeWidth=1;shadow=0;dashed=0;align=center;html=1;shape=mxgraph.mockup.forms.anchor;fontSize=17;fontColor=#666666;align=left;spacingLeft=5;resizeWidth=1;whiteSpace=wrap;" vertex="1" parent="Squ9iNtpEF2mn4FgxtWx-60">
          <mxGeometry width="320" height="20" relative="1" as="geometry">
            <mxPoint y="30" as="offset" />
          </mxGeometry>
        </mxCell>
        <mxCell id="Squ9iNtpEF2mn4FgxtWx-63" value="Item 2" style="strokeWidth=1;shadow=0;dashed=0;align=center;html=1;shape=mxgraph.mockup.forms.anchor;fontSize=17;fontColor=#666666;align=left;spacingLeft=5;resizeWidth=1;whiteSpace=wrap;" vertex="1" parent="Squ9iNtpEF2mn4FgxtWx-60">
          <mxGeometry width="320" height="20" relative="1" as="geometry">
            <mxPoint y="50" as="offset" />
          </mxGeometry>
        </mxCell>
        <mxCell id="Squ9iNtpEF2mn4FgxtWx-64" value="Item 3" style="strokeWidth=1;shadow=0;dashed=0;align=center;html=1;shape=mxgraph.mockup.forms.rrect;rSize=0;fontSize=17;fontColor=#666666;align=left;spacingLeft=5;fillColor=#ddeeff;strokeColor=none;resizeWidth=1;whiteSpace=wrap;" vertex="1" parent="Squ9iNtpEF2mn4FgxtWx-60">
          <mxGeometry width="320" height="20" relative="1" as="geometry">
            <mxPoint y="70" as="offset" />
          </mxGeometry>
        </mxCell>
        <mxCell id="Squ9iNtpEF2mn4FgxtWx-65" value="Item 4" style="strokeWidth=1;shadow=0;dashed=0;align=center;html=1;shape=mxgraph.mockup.forms.anchor;fontSize=17;fontColor=#666666;align=left;spacingLeft=5;resizeWidth=1;whiteSpace=wrap;" vertex="1" parent="Squ9iNtpEF2mn4FgxtWx-60">
          <mxGeometry width="320" height="20" relative="1" as="geometry">
            <mxPoint y="90" as="offset" />
          </mxGeometry>
        </mxCell>
        <mxCell id="Squ9iNtpEF2mn4FgxtWx-66" value="Agregar&amp;nbsp; [quitar] tipo" style="text;html=1;strokeColor=none;fillColor=none;align=center;verticalAlign=middle;whiteSpace=wrap;rounded=0;fontSize=20;fontStyle=1" vertex="1" parent="1">
          <mxGeometry x="840" y="800" width="160" height="80" as="geometry" />
        </mxCell>
        <mxCell id="Squ9iNtpEF2mn4FgxtWx-67" value="Agregar / quitar etiqueta" style="text;html=1;strokeColor=none;fillColor=none;align=center;verticalAlign=middle;whiteSpace=wrap;rounded=0;fontSize=20;fontStyle=1" vertex="1" parent="1">
          <mxGeometry x="930" y="1080" width="160" height="80" as="geometry" />
        </mxCell>
        <mxCell id="Squ9iNtpEF2mn4FgxtWx-68" value="" style="endArrow=classic;html=1;rounded=0;entryX=-0.019;entryY=0.663;entryDx=0;entryDy=0;entryPerimeter=0;" edge="1" parent="1" source="Squ9iNtpEF2mn4FgxtWx-54" target="Squ9iNtpEF2mn4FgxtWx-66">
          <mxGeometry width="50" height="50" relative="1" as="geometry">
            <mxPoint x="705" y="917" as="sourcePoint" />
            <mxPoint x="940" y="780" as="targetPoint" />
          </mxGeometry>
        </mxCell>
        <mxCell id="Squ9iNtpEF2mn4FgxtWx-69" value="" style="endArrow=classic;html=1;rounded=0;entryX=0;entryY=0.75;entryDx=0;entryDy=0;" edge="1" parent="1" source="Squ9iNtpEF2mn4FgxtWx-60" target="Squ9iNtpEF2mn4FgxtWx-67">
          <mxGeometry width="50" height="50" relative="1" as="geometry">
            <mxPoint x="675" y="1037" as="sourcePoint" />
            <mxPoint x="910" y="900" as="targetPoint" />
          </mxGeometry>
        </mxCell>
        <mxCell id="Squ9iNtpEF2mn4FgxtWx-70" value="Los usuarios se referencian con un id, y se visualizan con un nombre" style="shape=note;whiteSpace=wrap;html=1;backgroundOutline=1;darkOpacity=0.05;fillColor=#fff2cc;strokeColor=#d6b656;" vertex="1" parent="1">
          <mxGeometry x="850" y="680" width="200" height="100" as="geometry" />
        </mxCell>
        <mxCell id="Squ9iNtpEF2mn4FgxtWx-71" value="Los tipos clasifican los objetos, pero en esta versión son solo un nombre.&lt;br&gt;&lt;br&gt;{ la eliminación de tipos de momento no se considera en una primera versión }&lt;br&gt;&lt;br&gt;&amp;nbsp;No se puede quitar un tipo que esté definido en algún objeto." style="shape=note;whiteSpace=wrap;html=1;backgroundOutline=1;darkOpacity=0.05;fillColor=#fff2cc;strokeColor=#d6b656;" vertex="1" parent="1">
          <mxGeometry x="835" y="880" width="280" height="190" as="geometry" />
        </mxCell>
        <mxCell id="Squ9iNtpEF2mn4FgxtWx-72" value="Las etiquetas clasifican los objetos. Normalmente se crean las etiquetas desde el mismo objeto, pero aquí está la lista global de etiquetas.&lt;br&gt;&lt;br&gt;{ la eliminación de eituetas de momento no se considera en una primera versión }&lt;br&gt;&lt;br&gt;No se puede quitar una etiqueta referenciada en algún objeto." style="shape=note;whiteSpace=wrap;html=1;backgroundOutline=1;darkOpacity=0.05;fillColor=#fff2cc;strokeColor=#d6b656;" vertex="1" parent="1">
          <mxGeometry x="810" y="1160" width="310" height="200" as="geometry" />
        </mxCell>
      </root>
    </mxGraphModel>
  </diagram>
</mxfile>
